<?xml version="1.0" standalone="no"?>
<!DOCTYPE svg PUBLIC "-//W3C//DTD SVG 20010904//EN"
 "http://www.w3.org/TR/2001/REC-SVG-20010904/DTD/svg10.dtd">
<svg version="1.0" xmlns="http://www.w3.org/2000/svg"
 width="512.000000pt" height="512.000000pt" viewBox="0 0 512.000000 512.000000"
 preserveAspectRatio="xMidYMid meet">

<g transform="translate(0.000000,512.000000) scale(0.100000,-0.100000)"
fill="#000000" stroke="none">
<path d="M3935 5106 c-41 -18 -83 -69 -90 -109 -4 -18 -5 -118 -3 -224 3 -210
5 -218 72 -267 39 -29 133 -29 172 0 68 51 69 53 69 294 0 205 -1 220 -21 246
-11 15 -32 37 -46 47 -33 25 -113 32 -153 13z"/>
<path d="M4750 4949 c-25 -8 -86 -61 -222 -197 -157 -158 -188 -194 -197 -229
-39 -146 113 -256 240 -174 58 37 351 336 374 380 22 43 16 122 -12 159 -41
54 -117 80 -183 61z"/>
<path d="M3307 4786 c-21 -8 -48 -22 -59 -33 -47 -41 -61 -128 -32 -186 23
-44 159 -183 213 -218 97 -63 211 -19 241 92 18 67 0 108 -95 207 -131 138
-188 167 -268 138z"/>
<path d="M3935 4146 c-16 -8 -127 -111 -245 -230 l-214 -215 -122 120 c-150
146 -200 174 -314 174 -115 0 -167 -29 -309 -172 l-116 -115 -75 26 c-196 69
-393 100 -630 100 -511 1 -980 -194 -1345 -559 -292 -292 -472 -646 -542
-1065 -24 -144 -24 -436 0 -580 70 -419 250 -773 542 -1065 292 -292 646 -472
1065 -542 144 -24 436 -24 580 0 419 70 773 250 1065 542 365 365 560 834 559
1345 0 237 -31 434 -100 630 l-26 75 115 116 c143 142 172 194 172 309 0 115
-28 164 -174 313 l-120 122 224 225 c190 192 224 231 230 263 25 132 -101 237
-220 183z m-1929 -972 c53 -39 69 -71 69 -134 0 -44 -5 -66 -21 -86 -41 -55
-67 -67 -171 -75 -263 -20 -466 -111 -639 -283 -172 -173 -263 -376 -283 -639
-8 -104 -20 -130 -75 -171 -39 -29 -133 -29 -172 0 -61 45 -69 66 -68 182 3
301 131 604 353 835 173 180 371 296 607 356 177 45 351 52 400 15z"/>
<path d="M4560 4128 c-47 -32 -71 -68 -77 -116 -7 -55 26 -123 75 -154 35 -22
46 -23 242 -23 196 0 207 1 242 23 49 31 82 99 75 154 -6 48 -30 84 -77 116
-32 21 -42 22 -240 22 -198 0 -208 -1 -240 -22z"/>
<path d="M4427 3666 c-21 -8 -48 -22 -59 -33 -47 -41 -61 -128 -32 -186 23
-44 159 -183 213 -218 97 -63 211 -19 241 92 18 67 0 108 -95 207 -131 138
-188 167 -268 138z"/>
</g>
</svg>
