<?xml version="1.0" standalone="no"?>
<!DOCTYPE svg PUBLIC "-//W3C//DTD SVG 20010904//EN"
 "http://www.w3.org/TR/2001/REC-SVG-20010904/DTD/svg10.dtd">
<svg version="1.0" xmlns="http://www.w3.org/2000/svg"
 width="512.000000pt" height="512.000000pt" viewBox="0 0 512.000000 512.000000"
 preserveAspectRatio="xMidYMid meet">

<g transform="translate(0.000000,512.000000) scale(0.100000,-0.100000)"
fill="#000000" stroke="none">
<path d="M2475 4699 c-90 -13 -196 -70 -272 -146 -173 -173 -199 -436 -62
-639 56 -82 171 -169 260 -196 29 -8 38 -16 34 -27 -2 -9 -16 -61 -30 -116
-201 -771 -559 -1182 -969 -1112 -279 49 -562 321 -763 735 l-65 134 24 16
c48 32 121 116 144 166 103 225 -18 490 -255 560 -145 43 -311 -6 -418 -122
-38 -42 -84 -145 -92 -209 -29 -202 101 -397 294 -444 28 -6 53 -14 57 -18 4
-3 90 -442 192 -976 103 -533 191 -994 197 -1022 l10 -53 1799 0 1799 0 10 53
c6 28 94 489 197 1022 102 534 188 973 192 976 4 4 30 12 57 18 242 59 368
335 256 564 -50 103 -131 174 -237 207 -155 48 -308 7 -419 -111 -144 -154
-144 -399 1 -546 27 -28 60 -57 72 -65 l24 -16 -65 -134 c-244 -502 -603 -789
-922 -738 -352 56 -637 449 -810 1115 -14 55 -28 107 -30 116 -4 11 5 19 34
27 89 27 204 114 260 196 70 105 103 249 82 367 -38 212 -219 390 -426 419
-79 11 -77 11 -160 -1z"/>
<path d="M814 999 c-199 -76 -259 -336 -112 -488 22 -24 66 -55 97 -70 l56
-26 1705 0 1705 0 56 26 c246 116 235 464 -18 559 -53 20 -75 20 -1746 19
-1654 0 -1693 0 -1743 -20z"/>
</g>
</svg>
