<?xml version="1.0" standalone="no"?>
<!DOCTYPE svg PUBLIC "-//W3C//DTD SVG 20010904//EN"
 "http://www.w3.org/TR/2001/REC-SVG-20010904/DTD/svg10.dtd">
<svg version="1.0" xmlns="http://www.w3.org/2000/svg"
 width="512.000000pt" height="512.000000pt" viewBox="0 0 512.000000 512.000000"
 preserveAspectRatio="xMidYMid meet">

<g transform="translate(0.000000,512.000000) scale(0.100000,-0.100000)"
fill="#000000" stroke="none">
<path d="M2455 4486 c-104 -26 -187 -82 -252 -170 -118 -160 -109 -400 21
-543 20 -22 36 -47 36 -54 0 -17 -220 -671 -230 -682 -4 -4 -54 64 -113 152
l-106 160 22 48 c18 39 22 66 22 143 0 84 -3 102 -28 152 -75 153 -246 235
-407 194 -108 -27 -187 -92 -240 -196 -32 -61 -39 -187 -16 -262 21 -66 74
-140 127 -176 l40 -27 -7 -130 c-3 -71 -9 -158 -13 -192 l-6 -63 -222 222
-223 222 16 79 c13 65 14 92 6 146 -59 356 -483 503 -741 256 -180 -172 -188
-437 -19 -621 44 -48 114 -95 171 -115 24 -8 39 -21 42 -34 2 -11 18 -117 35
-235 18 -118 36 -222 41 -231 5 -9 23 -22 40 -28 39 -13 86 8 95 43 3 13 -9
118 -26 234 -17 117 -29 216 -26 221 3 4 24 11 47 15 56 9 142 52 193 98 l43
37 484 -474 c523 -513 522 -512 595 -484 20 8 45 26 56 40 10 14 123 333 249
710 127 376 234 687 237 691 4 3 40 -1 80 -10 63 -14 84 -14 145 -3 40 7 78
14 85 14 9 1 26 -31 45 -85 18 -47 41 -96 51 -107 35 -38 107 -19 120 32 3 15
-8 64 -29 128 -19 56 -35 109 -35 117 0 8 16 33 36 55 95 104 129 271 85 415
-67 221 -301 354 -526 298z m228 -165 c97 -47 157 -135 165 -242 6 -85 -16
-152 -69 -213 -117 -133 -321 -133 -438 0 -136 155 -66 405 131 470 58 19 155
12 211 -15z m-1083 -601 c129 -66 148 -240 37 -337 -70 -61 -162 -67 -245 -16
-67 41 -95 98 -90 185 3 57 8 73 34 104 17 21 42 46 56 57 53 39 138 42 208 7z
m-1025 -15 c97 -47 157 -145 158 -256 1 -55 -4 -77 -32 -133 -52 -105 -136
-157 -256 -159 -119 -2 -217 61 -269 172 -31 69 -28 179 6 246 76 146 246 203
393 130z m1260 -671 l129 -197 -80 -239 -79 -239 -178 172 -178 172 5 41 c3
22 11 129 17 237 l12 196 61 5 c34 3 82 15 106 26 25 11 48 21 51 21 3 1 63
-87 134 -195z"/>
<path d="M3537 3889 c-101 -24 -197 -101 -244 -196 -40 -83 -44 -197 -10 -282
l26 -63 -106 -159 c-59 -88 -110 -156 -114 -152 -3 5 -19 45 -33 89 -30 92
-49 114 -94 114 -40 0 -72 -31 -72 -69 0 -39 294 -909 318 -941 11 -14 36 -31
56 -39 73 -28 72 -29 596 484 l484 475 31 -29 c44 -43 130 -90 193 -106 30 -8
57 -16 59 -18 4 -4 -224 -1572 -232 -1594 -3 -10 -380 -13 -1838 -13 l-1833 0
-61 416 c-33 228 -63 418 -66 421 -7 7 -119 -6 -135 -16 -8 -4 6 -120 50 -406
l61 -400 6 -350 c6 -325 7 -352 26 -379 39 -59 -33 -56 1419 -56 983 0 1342 3
1360 11 51 24 55 103 6 129 -12 7 -457 10 -1334 10 l-1316 0 0 235 0 235 1820
0 1820 0 0 -235 0 -235 -358 0 -359 0 -21 -23 c-29 -31 -28 -72 3 -102 l24
-25 381 0 c415 0 429 2 465 56 19 27 20 53 26 374 l5 345 117 790 c65 435 120
799 122 810 3 13 19 26 42 34 129 45 242 169 277 306 42 158 -4 315 -125 430
-214 204 -565 144 -694 -118 -55 -113 -66 -213 -33 -327 l9 -35 -223 -222
-223 -223 -6 63 c-4 34 -10 121 -13 192 l-7 130 40 27 c96 65 146 179 139 311
-7 120 -54 204 -151 271 -82 56 -188 77 -280 55z m139 -154 c53 -16 100 -57
129 -114 26 -52 17 -147 -18 -198 -33 -48 -89 -81 -150 -89 -115 -16 -227 84
-227 203 1 92 60 173 147 200 51 16 61 15 119 -2z m1116 -23 c183 -80 232
-313 99 -465 -118 -134 -355 -117 -454 32 -112 169 -36 384 156 447 54 18 142
12 199 -14z m-1319 -503 c23 -12 69 -24 103 -27 l61 -4 15 -237 16 -236 -176
-174 -176 -173 -78 233 c-43 129 -78 239 -78 246 0 17 251 393 262 393 5 0 28
-10 51 -21z"/>
<path d="M2485 2763 c-96 -34 -168 -110 -224 -235 -54 -120 -66 -187 -66 -373
0 -148 3 -180 23 -250 33 -115 75 -196 135 -261 193 -211 448 -92 547 256 28
96 38 307 21 416 -52 318 -244 515 -436 447z m131 -162 c133 -81 200 -398 138
-650 -22 -89 -79 -196 -122 -229 -43 -33 -99 -35 -139 -6 -98 72 -162 280
-150 489 10 158 50 282 117 359 53 59 101 71 156 37z"/>
<path d="M1124 2360 c-53 -26 -289 -265 -309 -313 -20 -48 -19 -93 4 -142 22
-48 273 -299 314 -314 36 -14 98 -14 134 -1 37 14 301 276 319 317 17 38 18
101 3 140 -14 37 -264 290 -311 314 -48 25 -103 24 -154 -1z m205 -254 c106
-106 122 -126 113 -142 -14 -25 -226 -234 -238 -234 -5 0 -65 56 -134 125
l-125 125 125 125 c69 69 127 125 130 125 3 0 61 -56 129 -124z"/>
<path d="M3840 2360 c-46 -24 -296 -277 -309 -313 -15 -40 -14 -113 3 -145 22
-41 287 -299 319 -312 36 -13 98 -13 134 1 41 15 292 266 314 314 23 49 24 94
4 142 -21 49 -257 287 -310 313 -51 25 -109 25 -155 0z m210 -255 l124 -126
-124 -124 c-69 -69 -127 -125 -131 -125 -11 0 -249 232 -249 243 0 12 239 257
250 257 3 0 62 -56 130 -125z"/>
</g>
</svg>
