<?xml version="1.0" standalone="no"?>
<!DOCTYPE svg PUBLIC "-//W3C//DTD SVG 20010904//EN"
 "http://www.w3.org/TR/2001/REC-SVG-20010904/DTD/svg10.dtd">
<svg version="1.0" xmlns="http://www.w3.org/2000/svg"
 width="512.000000pt" height="512.000000pt" viewBox="0 0 512.000000 512.000000"
 preserveAspectRatio="xMidYMid meet">

<g transform="translate(0.000000,512.000000) scale(0.100000,-0.100000)"
fill="#000000" stroke="none">
<path d="M1682 4895 c-13 -10 -38 -49 -56 -89 -41 -89 -73 -121 -163 -163 -82
-38 -103 -61 -103 -116 0 -59 14 -74 105 -118 95 -45 118 -69 164 -172 26 -57
36 -70 68 -84 33 -13 43 -14 77 -2 36 13 44 22 82 101 48 95 75 122 170 163
72 32 93 57 94 110 0 57 -20 80 -105 119 -90 42 -118 70 -160 161 -18 39 -40
76 -49 84 -26 22 -97 25 -124 6z m91 -254 c19 -26 56 -64 82 -82 l47 -34 -24
-14 c-30 -20 -111 -100 -127 -126 -11 -20 -12 -19 -28 5 -23 33 -92 102 -122
121 l-24 15 50 36 c28 20 63 56 79 82 16 25 30 45 31 46 0 0 17 -22 36 -49z"/>
<path d="M3340 4627 c-15 -7 -38 -39 -60 -82 -55 -111 -66 -122 -156 -166 -95
-46 -114 -67 -114 -124 1 -53 22 -78 94 -110 95 -41 122 -68 170 -163 38 -79
46 -88 82 -101 34 -12 44 -11 77 2 32 14 42 27 68 84 46 103 69 127 164 172
91 44 105 59 105 118 0 55 -21 78 -103 116 -90 42 -122 74 -163 163 -18 40
-43 79 -55 88 -28 19 -74 20 -109 3z m163 -335 l50 -36 -24 -15 c-30 -19 -99
-88 -122 -121 -16 -24 -17 -25 -28 -5 -16 26 -97 106 -127 126 l-24 14 47 34
c26 18 63 56 82 82 l35 49 31 -46 c17 -26 53 -63 80 -82z"/>
<path d="M2298 4212 l-208 -208 0 -53 0 -53 119 -121 120 -122 -139 -344 c-77
-189 -141 -345 -143 -347 -2 -2 -36 32 -76 76 -64 70 -77 80 -107 80 -42 0
-74 -30 -74 -70 0 -23 21 -54 97 -140 l96 -111 -113 -282 c-62 -155 -116 -286
-120 -290 -7 -7 -522 364 -573 413 -18 17 -16 30 58 400 88 437 88 419 -1 475
-63 40 -84 76 -84 143 0 153 189 207 283 81 32 -44 33 -106 3 -162 -16 -29
-26 -64 -26 -88 0 -35 9 -49 77 -127 95 -108 99 -112 139 -112 23 0 39 8 53
26 35 44 27 65 -61 166 l-46 53 20 60 c25 75 21 163 -13 232 -111 230 -441
229 -551 -2 -58 -124 -27 -273 77 -362 l47 -40 -64 -311 c-34 -172 -66 -312
-71 -312 -4 0 -98 68 -210 150 l-202 151 3 79 c5 112 -15 169 -87 241 -72 71
-132 94 -235 87 -115 -8 -204 -65 -251 -163 -58 -118 -40 -245 47 -340 52 -57
96 -82 172 -100 l50 -11 192 -875 193 -874 1 -393 c0 -434 1 -445 62 -482 33
-20 47 -20 1255 -20 1210 0 1223 0 1243 20 30 30 27 83 -6 109 -27 21 -28 21
-1215 21 l-1189 0 0 330 0 330 1720 0 1720 0 0 -330 0 -330 -374 0 c-363 0
-374 -1 -400 -21 -33 -26 -36 -79 -6 -109 19 -19 33 -20 428 -20 391 0 408 1
440 20 61 37 62 48 62 482 l1 393 193 874 192 875 50 12 c76 18 100 30 150 76
200 184 88 509 -182 526 -103 7 -163 -16 -235 -87 -72 -72 -92 -129 -87 -241
l3 -79 -202 -151 c-112 -82 -206 -150 -210 -150 -5 0 -37 140 -71 311 l-64
312 49 43 c34 29 59 63 77 104 24 54 28 72 24 139 -7 164 -119 278 -283 289
-219 13 -377 -195 -307 -403 20 -58 20 -61 3 -80 -10 -11 -116 -132 -236 -268
-120 -136 -220 -246 -222 -244 -2 3 -66 159 -143 348 l-139 344 108 110 c60
61 114 120 120 132 6 12 11 41 11 65 0 42 -2 44 -208 250 l-208 208 -54 0 -54
0 -208 -208z m422 -107 l154 -155 -117 -118 c-112 -114 -117 -121 -117 -161 0
-32 87 -258 370 -958 203 -504 377 -924 386 -934 38 -42 124 -10 124 46 0 14
-20 75 -44 135 l-44 110 171 128 c95 70 369 273 609 451 486 360 480 354 459
444 -16 71 -14 118 9 155 83 136 300 67 287 -91 -7 -84 -61 -135 -154 -146
-67 -8 -108 -30 -125 -65 -5 -13 -97 -417 -202 -897 l-192 -874 -250 -3 -250
-2 -73 182 c-40 101 -80 191 -88 201 -20 22 -80 22 -105 0 -29 -27 -21 -71 42
-228 33 -82 60 -150 60 -152 0 -2 -482 -3 -1071 -3 -853 0 -1070 3 -1066 13 2
6 226 560 496 1229 377 935 491 1227 491 1259 0 40 -5 47 -117 161 l-117 118
154 155 c85 85 157 155 160 155 3 0 75 -70 160 -155z m1167 -311 c51 -25 83
-78 83 -138 0 -63 -27 -106 -89 -144 -83 -51 -83 -37 4 -471 42 -210 74 -385
70 -390 -13 -22 -578 -432 -585 -424 -3 4 -58 135 -120 291 l-114 282 25 28
c14 15 111 124 215 242 104 118 221 252 261 297 65 73 73 87 73 122 0 23 -10
60 -25 87 -30 57 -31 94 -5 149 36 75 129 105 207 69z m-3499 -494 c53 -33 74
-76 68 -140 -3 -30 -8 -69 -12 -86 -14 -70 -4 -79 442 -409 230 -170 505 -374
611 -452 l192 -142 -182 -451 -181 -450 -250 2 -250 3 -192 874 c-105 480
-197 884 -202 897 -17 35 -58 57 -125 65 -93 11 -147 62 -154 146 -10 122 130
207 235 143z"/>
<path d="M2504 2485 c-28 -19 -289 -384 -297 -414 -9 -37 10 -72 151 -272 198
-281 206 -281 402 -3 71 101 134 193 140 205 30 54 18 79 -125 279 -76 105
-147 197 -159 205 -11 8 -36 15 -56 15 -20 0 -45 -7 -56 -15z m150 -294 c47
-65 88 -125 91 -133 6 -15 -170 -273 -185 -273 -15 0 -191 258 -185 273 9 24
177 252 185 252 4 0 47 -54 94 -119z"/>
<path d="M1166 759 c-52 -41 -23 -129 44 -129 67 0 96 88 44 129 -15 12 -34
21 -44 21 -10 0 -29 -9 -44 -21z"/>
<path d="M1706 759 c-52 -41 -23 -129 44 -129 67 0 96 88 44 129 -15 12 -34
21 -44 21 -10 0 -29 -9 -44 -21z"/>
<path d="M2246 759 c-52 -41 -23 -129 44 -129 67 0 96 88 44 129 -15 12 -34
21 -44 21 -10 0 -29 -9 -44 -21z"/>
<path d="M2786 759 c-52 -41 -23 -129 44 -129 67 0 96 88 44 129 -15 12 -34
21 -44 21 -10 0 -29 -9 -44 -21z"/>
<path d="M3326 759 c-52 -41 -23 -129 44 -129 67 0 96 88 44 129 -15 12 -34
21 -44 21 -10 0 -29 -9 -44 -21z"/>
<path d="M3866 759 c-52 -41 -23 -129 44 -129 67 0 96 88 44 129 -15 12 -34
21 -44 21 -10 0 -29 -9 -44 -21z"/>
</g>
</svg>
