<?xml version="1.0" standalone="no"?>
<!DOCTYPE svg PUBLIC "-//W3C//DTD SVG 20010904//EN"
 "http://www.w3.org/TR/2001/REC-SVG-20010904/DTD/svg10.dtd">
<svg version="1.0" xmlns="http://www.w3.org/2000/svg"
 width="512.000000pt" height="512.000000pt" viewBox="0 0 512.000000 512.000000"
 preserveAspectRatio="xMidYMid meet">

<g transform="translate(0.000000,512.000000) scale(0.100000,-0.100000)"
fill="#000000" stroke="none">
<path d="M2360 5034 c-665 -61 -1265 -366 -1688 -859 -313 -364 -506 -796
-578 -1290 -24 -164 -24 -495 0 -660 79 -551 323 -1043 706 -1425 576 -574
1383 -829 2184 -690 1092 190 1924 1082 2041 2190 81 761 -197 1521 -750 2049
-383 365 -842 588 -1370 667 -97 14 -455 26 -545 18z m587 -558 c394 -84 718
-260 999 -542 272 -274 448 -602 530 -986 32 -151 44 -457 24 -615 -38 -309
-147 -603 -320 -862 -44 -66 -84 -121 -88 -121 -9 0 -2742 2733 -2742 2742 0
4 55 44 121 88 246 164 520 271 813 315 64 10 159 13 316 11 196 -3 241 -7
347 -30z m-545 -2073 c753 -753 1368 -1371 1368 -1375 0 -4 -55 -44 -121 -88
-259 -173 -553 -282 -862 -320 -158 -20 -464 -8 -615 24 -383 81 -713 259
-986 530 -282 281 -459 606 -542 999 -32 150 -44 456 -24 614 33 275 125 544
262 772 56 93 138 211 147 211 3 0 621 -615 1373 -1367z"/>
<path d="M2843 3410 c-30 -15 -48 -34 -62 -64 -19 -39 -21 -61 -21 -257 l0
-214 150 -150 150 -149 2 304 3 305 120 3 c211 5 326 -27 416 -117 66 -67 113
-157 134 -259 20 -97 20 -391 0 -484 -17 -83 -62 -180 -109 -234 l-35 -41 94
-93 95 -94 36 34 c93 90 179 247 214 392 41 171 36 453 -11 606 -12 37 -43
111 -71 164 -40 80 -63 110 -122 165 -86 80 -201 144 -312 175 -69 18 -113 21
-354 25 -265 4 -276 3 -317 -17z"/>
<path d="M1508 3058 c-235 -611 -449 -1197 -450 -1233 -5 -108 128 -172 220
-106 37 26 55 64 117 244 l47 137 338 0 338 0 10 -27 c5 -16 31 -89 57 -163
54 -153 70 -180 121 -205 93 -44 204 26 204 130 0 25 -24 103 -65 210 l-65
170 -227 227 c-125 125 -229 226 -230 224 -2 -2 21 -74 52 -162 30 -87 55
-159 55 -161 0 -2 -112 -3 -250 -3 l-249 0 80 233 c45 127 86 247 92 265 11
33 10 34 -90 134 -65 65 -102 95 -105 86z"/>
<path d="M2780 1800 c0 -28 37 -76 71 -93 18 -8 36 -14 38 -11 3 3 -21 30 -52
62 -32 31 -57 50 -57 42z"/>
</g>
</svg>
