<?xml version="1.0" encoding="UTF-8"?><svg xmlns="http://www.w3.org/2000/svg" xmlns:xlink="http://www.w3.org/1999/xlink" contentScriptType="text/ecmascript" width="768" zoomAndPan="magnify" contentStyleType="text/css" viewBox="0 0 768 767.999994" height="767.999994" preserveAspectRatio="xMidYMid meet" version="1.0"><defs><clipPath id="clip-0"><path d="M 485 143.40625 L 515 143.40625 L 515 204 L 485 204 Z M 485 143.40625 " clip-rule="nonzero"/></clipPath><clipPath id="clip-1"><path d="M 124.15625 233 L 516 233 L 516 624.90625 L 124.15625 624.90625 Z M 124.15625 233 " clip-rule="nonzero"/></clipPath><clipPath id="clip-2"><path d="M 545 234 L 605.65625 234 L 605.65625 265 L 545 265 Z M 545 234 " clip-rule="nonzero"/></clipPath><clipPath id="clip-3"><path d="M 504 143.40625 L 535 143.40625 L 535 204 L 504 204 Z M 504 143.40625 " clip-rule="nonzero"/></clipPath><clipPath id="clip-4"><path d="M 143.40625 233 L 535 233 L 535 624.90625 L 143.40625 624.90625 Z M 143.40625 233 " clip-rule="nonzero"/></clipPath><clipPath id="clip-5"><path d="M 564 234 L 624.90625 234 L 624.90625 265 L 564 265 Z M 564 234 " clip-rule="nonzero"/></clipPath></defs><g clip-path="url(#clip-0)"><path fill="rgb(85.099792%, 85.099792%, 85.099792%)" d="M 494.214844 144.722656 C 490.359375 146.414062 486.410156 151.210938 485.75 154.972656 C 485.375 156.664062 485.28125 166.070312 485.46875 176.039062 C 485.75 195.785156 485.9375 196.539062 492.242188 201.148438 C 495.90625 203.875 504.746094 203.875 508.414062 201.148438 C 514.8125 196.351562 514.90625 196.164062 514.90625 173.5 C 514.90625 154.21875 514.8125 152.808594 512.929688 150.363281 C 511.894531 148.953125 509.921875 146.882812 508.605469 145.945312 C 505.5 143.59375 497.976562 142.933594 494.214844 144.722656 Z M 494.214844 144.722656 " fill-opacity="1" fill-rule="nonzero"/></g><path fill="rgb(85.099792%, 85.099792%, 85.099792%)" d="M 570.859375 159.484375 C 568.507812 160.238281 562.773438 165.222656 549.984375 178.011719 C 535.21875 192.871094 532.300781 196.257812 531.457031 199.546875 C 527.789062 213.277344 542.082031 223.625 554.027344 215.910156 C 559.480469 212.433594 587.035156 184.3125 589.199219 180.175781 C 591.265625 176.132812 590.703125 168.703125 588.070312 165.222656 C 584.214844 160.144531 577.066406 157.699219 570.859375 159.484375 Z M 570.859375 159.484375 " fill-opacity="1" fill-rule="nonzero"/><path fill="rgb(85.099792%, 85.099792%, 85.099792%)" d="M 435.15625 174.816406 C 433.179688 175.566406 430.640625 176.882812 429.609375 177.917969 C 425.1875 181.773438 423.871094 189.957031 426.597656 195.410156 C 428.761719 199.546875 441.550781 212.621094 446.628906 215.910156 C 455.75 221.835938 466.472656 217.699219 469.292969 207.261719 C 470.988281 200.960938 469.292969 197.101562 460.359375 187.792969 C 448.039062 174.816406 442.679688 172.085938 435.15625 174.816406 Z M 435.15625 174.816406 " fill-opacity="1" fill-rule="nonzero"/><g clip-path="url(#clip-1)"><path fill="rgb(85.099792%, 85.099792%, 85.099792%)" d="M 494.214844 235.003906 C 492.710938 235.753906 482.273438 245.441406 471.175781 256.632812 L 451.050781 276.851562 L 439.578125 265.566406 C 425.46875 251.835938 420.769531 249.203125 410.046875 249.203125 C 399.230469 249.203125 394.339844 251.929688 380.988281 265.378906 L 370.078125 276.195312 L 363.023438 273.75 C 344.59375 267.257812 326.066406 264.34375 303.777344 264.34375 C 255.722656 264.25 211.617188 282.589844 177.289062 316.914062 C 149.828125 344.375 132.902344 377.664062 126.320312 417.070312 C 124.0625 430.613281 124.0625 458.074219 126.320312 471.613281 C 132.902344 511.019531 149.828125 544.308594 177.289062 571.769531 C 204.75 599.230469 238.042969 616.160156 277.445312 622.742188 C 290.988281 625 318.449219 625 331.992188 622.742188 C 371.394531 616.160156 404.6875 599.230469 432.148438 571.769531 C 466.472656 537.445312 484.8125 493.339844 484.71875 445.28125 C 484.71875 422.996094 481.800781 404.46875 475.3125 386.035156 L 472.867188 378.980469 L 483.683594 368.074219 C 497.128906 354.71875 499.859375 349.828125 499.859375 339.015625 C 499.859375 328.199219 497.222656 323.589844 483.496094 309.578125 L 472.210938 298.105469 L 493.273438 276.945312 C 511.144531 258.890625 514.339844 255.222656 514.90625 252.210938 C 517.253906 239.796875 505.40625 229.925781 494.214844 235.003906 Z M 312.804688 326.414062 C 317.789062 330.078125 319.296875 333.089844 319.296875 339.015625 C 319.296875 343.152344 318.824219 345.222656 317.320312 347.101562 C 313.464844 352.273438 311.019531 353.402344 301.238281 354.15625 C 276.503906 356.035156 257.414062 364.59375 241.144531 380.769531 C 224.96875 397.039062 216.414062 416.128906 214.53125 440.863281 C 213.777344 450.644531 212.652344 453.089844 207.476562 456.945312 C 203.808594 459.671875 194.96875 459.671875 191.304688 456.945312 C 185.566406 452.710938 184.8125 450.738281 184.90625 439.828125 C 185.191406 411.519531 197.226562 383.027344 218.105469 361.300781 C 234.375 344.375 252.996094 333.464844 275.1875 327.824219 C 291.835938 323.589844 308.199219 322.933594 312.804688 326.414062 Z M 312.804688 326.414062 " fill-opacity="1" fill-rule="nonzero"/></g><g clip-path="url(#clip-2)"><path fill="rgb(85.099792%, 85.099792%, 85.099792%)" d="M 552.992188 236.695312 C 548.570312 239.703125 546.316406 243.089844 545.75 247.605469 C 545.09375 252.777344 548.195312 259.171875 552.804688 262.085938 C 556.09375 264.15625 557.128906 264.25 575.5625 264.25 C 593.996094 264.25 595.027344 264.15625 598.320312 262.085938 C 602.929688 259.171875 606.03125 252.777344 605.375 247.605469 C 604.808594 243.089844 602.550781 239.703125 598.132812 236.695312 C 595.125 234.71875 594.183594 234.625 575.5625 234.625 C 556.941406 234.625 556 234.71875 552.992188 236.695312 Z M 552.992188 236.695312 " fill-opacity="1" fill-rule="nonzero"/></g><path fill="rgb(85.099792%, 85.099792%, 85.099792%)" d="M 540.484375 280.144531 C 538.507812 280.894531 535.96875 282.210938 534.9375 283.246094 C 530.515625 287.101562 529.199219 295.285156 531.925781 300.738281 C 534.089844 304.875 546.878906 317.949219 551.957031 321.238281 C 561.078125 327.164062 571.800781 323.027344 574.621094 312.589844 C 576.316406 306.289062 574.621094 302.429688 565.6875 293.121094 C 553.367188 280.144531 548.007812 277.414062 540.484375 280.144531 Z M 540.484375 280.144531 " fill-opacity="1" fill-rule="nonzero"/><g clip-path="url(#clip-3)"><path fill="rgb(0%, 0%, 0%)" d="M 513.464844 144.722656 C 509.609375 146.414062 505.660156 151.210938 505 154.972656 C 504.625 156.664062 504.53125 166.070312 504.71875 176.039062 C 505 195.785156 505.1875 196.539062 511.488281 201.148438 C 515.15625 203.875 523.996094 203.875 527.664062 201.148438 C 534.058594 196.351562 534.152344 196.164062 534.152344 173.5 C 534.152344 154.21875 534.058594 152.808594 532.179688 150.363281 C 531.144531 148.953125 529.167969 146.882812 527.851562 145.945312 C 524.75 143.59375 517.226562 142.933594 513.464844 144.722656 Z M 513.464844 144.722656 " fill-opacity="1" fill-rule="nonzero"/></g><path fill="rgb(0%, 0%, 0%)" d="M 590.109375 159.484375 C 587.757812 160.238281 582.019531 165.222656 569.230469 178.011719 C 554.464844 192.871094 551.550781 196.257812 550.703125 199.546875 C 547.039062 213.277344 561.332031 223.625 573.273438 215.910156 C 578.730469 212.433594 606.285156 184.3125 608.445312 180.175781 C 610.515625 176.132812 609.953125 168.703125 607.320312 165.222656 C 603.464844 160.144531 596.316406 157.699219 590.109375 159.484375 Z M 590.109375 159.484375 " fill-opacity="1" fill-rule="nonzero"/><path fill="rgb(0%, 0%, 0%)" d="M 454.40625 174.816406 C 452.429688 175.566406 449.890625 176.882812 448.855469 177.917969 C 444.4375 181.773438 443.121094 189.957031 445.847656 195.410156 C 448.011719 199.546875 460.800781 212.621094 465.878906 215.910156 C 475 221.835938 485.722656 217.699219 488.542969 207.261719 C 490.234375 200.960938 488.542969 197.101562 479.609375 187.792969 C 467.289062 174.816406 461.929688 172.085938 454.40625 174.816406 Z M 454.40625 174.816406 " fill-opacity="1" fill-rule="nonzero"/><g clip-path="url(#clip-4)"><path fill="rgb(0%, 0%, 0%)" d="M 513.464844 235.003906 C 511.960938 235.753906 501.519531 245.441406 490.421875 256.632812 L 470.296875 276.851562 L 458.824219 265.566406 C 444.71875 251.835938 440.015625 249.203125 429.296875 249.203125 C 418.480469 249.203125 413.589844 251.929688 400.234375 265.378906 L 389.328125 276.195312 L 382.273438 273.75 C 363.839844 267.257812 345.316406 264.34375 323.027344 264.34375 C 274.972656 264.25 230.863281 282.589844 196.539062 316.914062 C 169.078125 344.375 152.152344 377.664062 145.566406 417.070312 C 143.3125 430.613281 143.3125 458.074219 145.566406 471.613281 C 152.152344 511.019531 169.078125 544.308594 196.539062 571.769531 C 224 599.230469 257.289062 616.160156 296.695312 622.742188 C 310.238281 625 337.699219 625 351.238281 622.742188 C 390.644531 616.160156 423.933594 599.230469 451.394531 571.769531 C 485.722656 537.445312 504.058594 493.339844 503.964844 445.28125 C 503.964844 422.996094 501.050781 404.46875 494.5625 386.035156 L 492.117188 378.980469 L 502.929688 368.074219 C 516.378906 354.71875 519.105469 349.828125 519.105469 339.015625 C 519.105469 328.199219 516.472656 323.589844 502.742188 309.578125 L 491.457031 298.105469 L 512.523438 276.945312 C 530.390625 258.890625 533.589844 255.222656 534.152344 252.210938 C 536.503906 239.796875 524.65625 229.925781 513.464844 235.003906 Z M 332.054688 326.414062 C 337.039062 330.078125 338.542969 333.089844 338.542969 339.015625 C 338.542969 343.152344 338.074219 345.222656 336.570312 347.101562 C 332.714844 352.273438 330.269531 353.402344 320.488281 354.15625 C 295.753906 356.035156 276.664062 364.59375 260.394531 380.769531 C 244.21875 397.039062 235.660156 416.128906 233.78125 440.863281 C 233.027344 450.644531 231.898438 453.089844 226.726562 456.945312 C 223.058594 459.671875 214.21875 459.671875 210.550781 456.945312 C 204.816406 452.710938 204.0625 450.738281 204.15625 439.828125 C 204.4375 411.519531 216.476562 383.027344 237.355469 361.300781 C 253.625 344.375 272.242188 333.464844 294.4375 327.824219 C 311.082031 323.589844 327.445312 322.933594 332.054688 326.414062 Z M 332.054688 326.414062 " fill-opacity="1" fill-rule="nonzero"/></g><g clip-path="url(#clip-5)"><path fill="rgb(0%, 0%, 0%)" d="M 572.242188 236.695312 C 567.820312 239.703125 565.5625 243.089844 565 247.605469 C 564.339844 252.777344 567.445312 259.171875 572.050781 262.085938 C 575.34375 264.15625 576.378906 264.25 594.8125 264.25 C 613.242188 264.25 614.277344 264.15625 617.570312 262.085938 C 622.175781 259.171875 625.28125 252.777344 624.621094 247.605469 C 624.058594 243.089844 621.800781 239.703125 617.382812 236.695312 C 614.371094 234.71875 613.429688 234.625 594.8125 234.625 C 576.191406 234.625 575.25 234.71875 572.242188 236.695312 Z M 572.242188 236.695312 " fill-opacity="1" fill-rule="nonzero"/></g><path fill="rgb(0%, 0%, 0%)" d="M 559.734375 280.144531 C 557.757812 280.894531 555.21875 282.210938 554.183594 283.246094 C 549.765625 287.101562 548.449219 295.285156 551.175781 300.738281 C 553.339844 304.875 566.128906 317.949219 571.207031 321.238281 C 580.328125 327.164062 591.050781 323.027344 593.871094 312.589844 C 595.5625 306.289062 593.871094 302.429688 584.9375 293.121094 C 572.617188 280.144531 567.257812 277.414062 559.734375 280.144531 Z M 559.734375 280.144531 " fill-opacity="1" fill-rule="nonzero"/></svg>